<?xml version="1.0" encoding="utf-8"?>
<!-- Generator: Adobe Illustrator 26.0.1, SVG Export Plug-In . SVG Version: 6.00 Build 0)  -->
<svg version="1.1" id="Capa_1" xmlns="http://www.w3.org/2000/svg" xmlns:xlink="http://www.w3.org/1999/xlink" x="0px" y="0px"
	 viewBox="0 0 91.1 90.1" style="enable-background:new 0 0 91.1 90.1;" xml:space="preserve">
<style type="text/css">
	.st0{fill:#3B3B3B;}
</style>
<g>
	<path class="st0" d="M61.6,14.1c0.3,0,0.6,0.3,0.6,0.6c0,0.5,0,1.1,0,1.6c0,2.1,0,4.2,0,6.3c0,1.4,0,1.4-1.4,1.4
		c-3.1,0-6.1,0-9.2,0c-0.9,0-1.2,0.3-1.2,1.2c0,8.3,0,16.6,0,24.9c0,0.3,0,0.6-0.2,0.7c-0.9,0.8-1.7,1.4-2.6,2.1
		c-0.4,0.3-0.9,0.1-0.9-0.5c0-0.7,0-1.3,0-1.9c0-9.6,0-19.2,0-28.7c0-1.1,0.2-1.5,1.4-1.4c3.2,0.1,6.4,0.1,9.7,0
		c0.3,0,0.6-0.3,0.6-0.6v-1.4c0-0.3-0.3-0.6-0.6-0.6H47.5c-0.3,0-0.6-0.3-0.6-0.6V6.8c0-0.3-0.3-0.6-0.6-0.6H45
		c-0.3,0-0.6,0.3-0.6,0.6c0,1.9,0,3.7,0,5.5c0,1.4-0.1,3,0,4.4c0,0.9-0.3,1.2-1.2,1.2c-3.1-0.1-6.2,0-9.3,0c-0.9,0-1.4,0.2-1.4,1.2
		c0,1.1,0.4,1.4,1.4,1.4c3-0.1,5.9,0,8.8,0c1.5,0,1.5,0,1.5,1.6c0,6.4,0,12.7,0,19c0,3.8,0,7.6,0,11.5l0,0c0,0.5-0.6,0.9-0.9,0.5
		c-0.9-0.8-1.7-1.4-2.5-2.1c-0.2-0.2-0.2-0.8-0.2-1.2c0-8.1,0-16.1,0-24.2c0-0.3,0-0.5,0-0.9c0-0.3-0.3-0.6-0.6-0.6H29.5
		c-0.3,0-0.5-0.2-0.6-0.5c0-0.2-0.1-0.3-0.1-0.5c0-2.6,0-5.3,0-7.9c0-0.9,0.2-1.1,1.1-1.1c3.1,0.1,6.4,0,9.5,0c0.2,0,0.4,0,0.6,0
		c0.3,0,0.5-0.3,0.5-0.6c0-2,0-4.1,0-6.1c0-1.4,0-2.6,0-4.1c0-0.7,0.2-0.9,0.9-0.9c2.6,0,5.4,0.1,8.1,0c0.9,0,0.9,0.4,0.9,1
		c0,3.1,0,6.1,0,9.2c0,1.4,0,1.4,1.5,1.4C55.2,14.1,58.3,14.1,61.6,14.1z"/>
	<path class="st0" d="M69.5,11.2c0-0.1,0-0.1,0.1-0.2c0.2-0.1,0.2-0.2,0.2-0.2c3.4-0.3,3.4-0.3,3.4,3.1c0,10.8,0,21.6,0,32.4
		c0,0.9-0.3,1.4-1.2,1.7c-6.6,2.7-13.2,5.6-20,8.3c-0.6,0.3-1.2,0.5-1.9,0.6c-0.2,0.1-0.3-0.2-0.2-0.3c0.8-0.5,1.6-1,2.3-1.5
		c5.5-3.1,11-6.3,16.4-9.3c0.6-0.3,0.7-0.9,0.7-1.4c0-10.8,0-21.6,0-32.4C69.5,11.8,69.5,11.4,69.5,11.2z"/>
	<path class="st0" d="M21.6,11.2c0-0.1,0-0.1-0.1-0.2c-0.2-0.1-0.2-0.2-0.2-0.2c-3.4-0.3-3.4-0.3-3.4,3.1c0,10.8,0,21.6,0,32.4
		c0,0.9,0.3,1.4,1.2,1.7c6.7,2.7,13.3,5.6,20,8.3c0.6,0.3,1.2,0.5,1.9,0.6c0.2,0.1,0.3-0.2,0.2-0.3c-0.8-0.5-1.6-1-2.3-1.5
		c-5.5-3.1-11-6.3-16.4-9.3c-0.6-0.3-0.7-0.9-0.7-1.4c0-10.8,0-21.6,0-32.4C21.6,11.8,21.6,11.4,21.6,11.2z"/>
	<g>
		<path class="st0" d="M64.2,8c0-0.2,0.2-0.3,0.3-0.3c0.9,0,1.9-0.1,2.8,0.1c0.2,0,0.5,0.5,0.5,0.9c0,11-0.2,21.8,0.1,32.8
			c0,2.3-0.6,3.6-2.6,4.7C60,49,54.9,52.1,49.7,55.1l0,0c-0.3,0.2-0.6-0.3-0.3-0.5c0.9-0.9,1.9-1.6,3-2.5c3.7-3,7.4-6,11.1-9
			c0.6-0.5,0.9-1,0.9-1.9c0-10.7,0-21.4,0-32.1C64.2,8.8,64.2,8.5,64.2,8z"/>
		<path class="st0" d="M26.9,8c0-0.2-0.2-0.3-0.3-0.3c-0.9,0-1.9-0.1-2.8,0.1c-0.2,0-0.5,0.5-0.5,0.9c0.1,11,0.2,21.9,0,32.8
			c0,2.3,0.6,3.6,2.6,4.7c5.3,2.8,10.4,5.9,15.6,9l0,0c0.3,0.2,0.6-0.3,0.3-0.5c-0.9-0.9-1.9-1.6-3-2.5c-3.7-3-7.4-6-11.1-9
			c-0.6-0.5-0.9-1-0.9-1.9c0-10.7,0-21.4,0-32.1C26.9,8.8,26.9,8.5,26.9,8z"/>
	</g>
</g>
<g>
	<path class="st0" d="M17.9,85.7h3.7V87h-5.3v-6.7h5.1v1.2h-3.5C17.9,81.5,17.9,85.7,17.9,85.7z M17.8,83h3.2v1.1h-3.2V83z"/>
	<path class="st0" d="M25,87.1c-0.6,0-1.1-0.1-1.5-0.2s-0.9-0.3-1.1-0.6l0.5-1.1c0.3,0.2,0.6,0.4,1.1,0.5c0.4,0.1,0.8,0.2,1.1,0.2
		c0.3,0,0.6,0,0.8-0.1c0.2-0.1,0.3-0.1,0.4-0.3c0.1-0.1,0.1-0.2,0.1-0.4s-0.1-0.3-0.2-0.4s-0.3-0.2-0.6-0.3
		c-0.2-0.1-0.5-0.1-0.8-0.2c-0.3-0.1-0.6-0.1-0.9-0.2c-0.3-0.1-0.5-0.2-0.8-0.4c-0.2-0.1-0.4-0.3-0.6-0.6c-0.1-0.2-0.2-0.5-0.2-0.9
		c0-0.4,0.1-0.8,0.3-1.1c0.2-0.3,0.5-0.6,1-0.8c0.4-0.2,1-0.3,1.5-0.3c0.4,0,0.9,0.1,1.2,0.2c0.4,0.1,0.8,0.3,1.1,0.5l-0.5,1.1
		c-0.3-0.2-0.6-0.3-1-0.4c-0.3-0.1-0.6-0.1-0.9-0.1s-0.6,0-0.8,0.1s-0.3,0.2-0.4,0.3c-0.1,0.1-0.1,0.2-0.1,0.4s0.1,0.3,0.2,0.4
		s0.3,0.2,0.6,0.3c0.2,0.1,0.5,0.1,0.8,0.2c0.3,0.1,0.6,0.1,0.9,0.2c0.3,0.1,0.5,0.2,0.8,0.3c0.2,0.1,0.4,0.3,0.6,0.6
		c0.1,0.2,0.2,0.5,0.2,0.9s-0.1,0.7-0.3,1.1c-0.2,0.3-0.5,0.6-1,0.8C26.1,87,25.5,87.1,25,87.1z"/>
	<path class="st0" d="M28.9,87v-6.7h3c0.6,0,1.1,0.1,1.5,0.3c0.4,0.2,0.8,0.5,1,0.9c0.2,0.4,0.4,0.8,0.4,1.2c0,0.5-0.1,1-0.4,1.2
		c-0.2,0.4-0.6,0.7-1,0.9c-0.4,0.2-1,0.3-1.5,0.3h-2.1l0.7-0.7v2.5C30.4,87,28.9,87,28.9,87z M30.4,84.6l-0.7-0.8h1.9
		c0.5,0,0.9-0.1,1.1-0.3c0.2-0.2,0.4-0.5,0.4-0.9c0-0.4-0.1-0.7-0.4-0.9c-0.2-0.2-0.6-0.3-1.1-0.3h-1.9l0.7-0.8
		C30.4,80.7,30.4,84.6,30.4,84.6z"/>
	<path class="st0" d="M35.8,87v-6.7h1.5V87H35.8z"/>
	<path class="st0" d="M39,87v-6.7h3c0.6,0,1.1,0.1,1.5,0.3c0.4,0.2,0.8,0.5,1,0.9s0.4,0.8,0.4,1.2c0,0.5-0.1,1-0.4,1.2
		c-0.2,0.4-0.6,0.7-1,0.9s-1,0.3-1.5,0.3h-2l0.7-0.7v2.5C40.5,87,39,87,39,87z M40.5,84.6l-0.7-0.8h1.9c0.5,0,0.9-0.1,1.1-0.3
		c0.2-0.2,0.4-0.5,0.4-0.9c0-0.4-0.1-0.7-0.4-0.9c-0.2-0.2-0.6-0.3-1.1-0.3h-1.9l0.7-0.8V84.6z M43.3,87l-1.6-2.4h1.6l1.6,2.4H43.3z
		"/>
	<path class="st0" d="M46,87v-6.7h1.5V87H46z"/>
	<path class="st0" d="M50.6,87v-5.4h-2.1v-1.2h5.8v1.2h-2.1V87H50.6z"/>
	<path class="st0" d="M57.9,87.1c-1,0-1.6-0.3-2.2-0.8c-0.6-0.5-0.8-1.2-0.8-2.2v-3.8h1.5V84c0,0.7,0.1,1.1,0.4,1.3
		c0.3,0.3,0.6,0.4,1.1,0.4c0.5,0,0.9-0.1,1.1-0.4c0.2-0.3,0.4-0.8,0.4-1.3v-3.7h1.5v3.8c0,1-0.3,1.7-0.8,2.2
		C59.7,86.8,58.9,87.1,57.9,87.1z"/>
	<path class="st0" d="M61.5,87l3.1-6.7h1.5l3.1,6.7h-1.6l-2.4-5.9h0.6L63.4,87H61.5z M63,85.5l0.4-1.1h3.5l0.4,1.1H63z"/>
	<path class="st0" d="M69.8,87v-6.7h1.5v5.4h3.4V87H69.8z"/>
</g>
<g>
	<path class="st0" d="M37.6,60.3l-2,15.5h-6.1l-2.3-15.5h4.2c0.5,4.3,0.8,7.9,1.1,10.8c0.2-3,0.4-5.6,0.7-7.9l0.3-2.9H37.6z"/>
	<path class="st0" d="M42.3,60.3v15.5h-4V60.3H42.3z"/>
	<path class="st0" d="M43.9,60.3h3c1.9,0,3.3,0.1,3.9,0.3c0.7,0.2,1.2,0.5,1.6,0.9c0.4,0.4,0.6,0.9,0.7,1.4c0.1,0.5,0.1,1.5,0.1,2.9
		v5.4c0,1.4-0.1,2.3-0.2,2.8c-0.1,0.5-0.4,0.8-0.7,1.1c-0.3,0.3-0.7,0.4-1.2,0.6c-0.5,0.1-1.2,0.2-2.2,0.2h-5.1V60.3z M47.9,63v10.2
		c0.6,0,0.9-0.1,1.1-0.3c0.1-0.2,0.2-0.9,0.2-1.9v-6c0-0.7,0-1.1-0.1-1.3c0-0.2-0.1-0.3-0.3-0.4C48.7,63,48.4,63,47.9,63z"/>
	<path class="st0" d="M61.7,60.3L64,75.8h-4.1L59.6,73h-1.4L58,75.8h-4.2l2.1-15.5H61.7z M59.5,70.3c-0.2-1.8-0.4-3.9-0.6-6.5
		c-0.4,3-0.7,5.1-0.8,6.5H59.5z"/>
</g>
</svg>
