<?xml version="1.0" encoding="utf-8"?>
<!-- Generator: Adobe Illustrator 26.0.1, SVG Export Plug-In . SVG Version: 6.00 Build 0)  -->
<svg version="1.1" id="Capa_1" xmlns="http://www.w3.org/2000/svg" xmlns:xlink="http://www.w3.org/1999/xlink" x="0px" y="0px"
	 viewBox="0 0 133.3 64" style="enable-background:new 0 0 133.3 64;" xml:space="preserve">
<style type="text/css">
	.st0{fill:#FFFFFF;}
</style>
<g>
	<path class="st0" d="M42.8,18.1c0.3,0,0.6,0.3,0.6,0.6c0,0.5,0,1,0,1.5c0,1.9,0,3.8,0,5.6c0,1.3,0,1.3-1.3,1.3c-2.8,0-5.4,0-8.2,0
		c-0.8,0-1.1,0.3-1.1,1.1c0,7.4,0,14.8,0,22.2c0,0.3,0,0.6-0.1,0.6c-0.8,0.7-1.5,1.3-2.3,1.9c-0.3,0.3-0.8,0.1-0.8-0.4
		c0-0.6,0-1.2,0-1.7c0-8.6,0-17.1,0-25.7c0-1,0.2-1.3,1.3-1.3c2.9,0.1,5.7,0.1,8.6,0c0.3,0,0.6-0.3,0.6-0.6v-1.3
		c0-0.3-0.3-0.6-0.6-0.6h-9.2c-0.3,0-0.6-0.3-0.6-0.6v-9.3c0-0.3-0.3-0.6-0.6-0.6h-1.2c-0.3,0-0.6,0.3-0.6,0.6c0,1.7,0,3.3,0,4.9
		c0,1.3-0.1,2.6,0,3.9c0,0.8-0.3,1-1,1c-2.8-0.1-5.6,0-8.3,0c-0.8,0-1.3,0.1-1.3,1.1s0.3,1.3,1.3,1.3c2.6-0.1,5.3,0,7.9,0
		c1.3,0,1.3,0,1.3,1.4c0,5.7,0,11.4,0,17c0,3.4,0,6.8,0,10.3l0,0c0,0.4-0.6,0.8-0.8,0.4c-0.8-0.7-1.5-1.3-2.2-1.9
		c-0.2-0.2-0.2-0.7-0.2-1c0-7.2,0-14.4,0-21.6c0-0.3,0-0.5,0-0.8s-0.3-0.6-0.6-0.6h-9.3c-0.3,0-0.5-0.2-0.6-0.5
		c0-0.1-0.1-0.3-0.1-0.4c0-2.4,0-4.7,0-7.1c0-0.8,0.2-1,1-1c2.8,0.1,5.7,0,8.5,0c0.2,0,0.3,0,0.6,0c0.3,0,0.5-0.3,0.5-0.6
		c0-1.8,0-3.6,0-5.4c0-1.3,0-2.4,0-3.6c0-0.6,0.2-0.8,0.8-0.8c2.4,0,4.8,0.1,7.2,0c0.8,0,0.8,0.3,0.8,0.9c0,2.8,0,5.4,0,8.2
		c0,1.3,0,1.3,1.3,1.3C37.1,18.1,39.8,18.1,42.8,18.1z"/>
	<path class="st0" d="M49.9,15.4c0-0.1,0-0.1,0.1-0.1c0.1-0.1,0.1-0.1,0.2-0.1c3.1-0.3,3.1-0.3,3.1,2.8c0,9.7,0,19.3,0,29
		c0,0.8-0.3,1.3-1,1.5c-5.9,2.4-11.8,5-17.9,7.5c-0.6,0.3-1.1,0.4-1.7,0.6c-0.1,0.1-0.3-0.2-0.1-0.3c0.7-0.4,1.4-0.9,2.1-1.3
		c4.9-2.8,9.8-5.6,14.7-8.4c0.6-0.3,0.6-0.8,0.6-1.3c0-9.7,0-19.3,0-29C49.9,16,49.9,15.6,49.9,15.4z"/>
	<path class="st0" d="M7,15.4c0-0.1,0-0.1-0.1-0.1c-0.1-0.1-0.1-0.1-0.2-0.1c-3.1-0.3-3.1-0.3-3.1,2.8c0,9.7,0,19.3,0,29
		c0,0.8,0.3,1.3,1,1.5c6,2.4,11.9,5,17.9,7.5c0.6,0.3,1.1,0.4,1.7,0.6c0.1,0.1,0.3-0.2,0.1-0.3c-0.7-0.4-1.4-0.9-2.1-1.3
		c-4.9-2.8-9.8-5.6-14.7-8.4c-0.6-0.3-0.6-0.8-0.6-1.3c0-9.7,0-19.3,0-29C7,16,7,15.6,7,15.4z"/>
	<g>
		<path class="st0" d="M45.1,12.6c0-0.1,0.1-0.3,0.3-0.3c0.8,0,1.7-0.1,2.5,0.1c0.2,0,0.4,0.5,0.4,0.8c0,9.8-0.1,19.5,0.1,29.3
			c0,2.1-0.6,3.2-2.4,4.2c-4.7,2.5-9.3,5.3-13.9,7.9l0,0c-0.3,0.2-0.6-0.3-0.3-0.4c0.8-0.8,1.7-1.5,2.6-2.2c3.3-2.7,6.6-5.4,10-8
			c0.6-0.4,0.8-0.9,0.8-1.7c0-9.5,0-19.2,0-28.7C45.1,13.3,45.1,13,45.1,12.6z"/>
		<path class="st0" d="M11.8,12.6c0-0.1-0.1-0.3-0.3-0.3c-0.8,0-1.7-0.1-2.5,0.1c-0.2,0-0.5,0.5-0.5,0.8c0.1,9.8,0.1,19.6,0,29.3
			c0,2.1,0.6,3.2,2.4,4.2c4.7,2.5,9.3,5.3,13.9,8l0,0c0.3,0.2,0.6-0.3,0.3-0.4c-0.8-0.8-1.7-1.5-2.6-2.2c-3.3-2.7-6.6-5.4-10-8
			c-0.6-0.4-0.8-0.9-0.8-1.7c0-9.5,0-19.2,0-28.7C11.8,13.3,11.8,13,11.8,12.6z"/>
	</g>
</g>
<g>
	<path class="st0" d="M61.1,45.1h4.6v1.5h-6.5v-8.3h6.2v1.5h-4.4C61.1,39.9,61.1,45.1,61.1,45.1z M61,41.7h4v1.4h-4V41.7z"/>
	<path class="st0" d="M69.9,46.8c-0.7,0-1.3-0.1-1.9-0.2c-0.6-0.1-1.1-0.4-1.4-0.7l0.6-1.4c0.4,0.2,0.7,0.5,1.3,0.6
		c0.5,0.1,0.9,0.2,1.4,0.2c0.4,0,0.7,0,0.9-0.1s0.4-0.1,0.5-0.4c0.1-0.1,0.1-0.2,0.1-0.5c0-0.2-0.1-0.4-0.2-0.5
		c-0.1-0.1-0.4-0.2-0.7-0.4c-0.2-0.1-0.6-0.1-0.9-0.2c-0.4-0.1-0.7-0.1-1.1-0.2c-0.4-0.1-0.6-0.2-0.9-0.5c-0.2-0.1-0.5-0.4-0.7-0.7
		c-0.1-0.2-0.2-0.6-0.2-1.1s0.1-0.9,0.4-1.3c0.2-0.4,0.6-0.7,1.2-0.9c0.5-0.2,1.2-0.4,1.9-0.4c0.5,0,1.1,0.1,1.5,0.2
		c0.5,0.1,0.9,0.4,1.3,0.6l-0.6,1.4c-0.4-0.2-0.7-0.4-1.2-0.5c-0.4-0.1-0.7-0.1-1.1-0.1c-0.4,0-0.7,0-0.9,0.1
		c-0.2,0.1-0.4,0.2-0.5,0.4c-0.1,0.1-0.1,0.2-0.1,0.5s0.1,0.4,0.2,0.5c0.1,0.1,0.4,0.2,0.7,0.4c0.2,0.1,0.6,0.1,0.9,0.2
		c0.4,0.1,0.7,0.1,1.1,0.2c0.4,0.1,0.6,0.2,0.9,0.4c0.2,0.1,0.5,0.4,0.7,0.7c0.1,0.2,0.2,0.6,0.2,1.1s-0.1,0.8-0.4,1.3
		c-0.2,0.4-0.6,0.7-1.2,0.9C71.3,46.6,70.6,46.8,69.9,46.8z"/>
	<path class="st0" d="M74.7,46.6v-8.3h3.7c0.7,0,1.4,0.1,1.9,0.4s0.9,0.6,1.2,1.1s0.5,0.9,0.5,1.5c0,0.6-0.1,1.2-0.5,1.5
		c-0.2,0.5-0.7,0.8-1.2,1.1s-1.2,0.4-1.9,0.4h-2.6l0.8-0.8v3.1C76.6,46.6,74.7,46.6,74.7,46.6z M76.6,43.7l-0.8-0.9h2.4
		c0.6,0,1.1-0.1,1.3-0.4c0.2-0.2,0.5-0.6,0.5-1.1s-0.1-0.8-0.5-1.1c-0.2-0.2-0.7-0.4-1.3-0.4h-2.4l0.8-0.9
		C76.6,38.9,76.6,43.7,76.6,43.7z"/>
	<path class="st0" d="M83.2,46.6v-8.3h1.9v8.3H83.2z"/>
	<path class="st0" d="M87.2,46.6v-8.3h3.7c0.7,0,1.4,0.1,1.9,0.4c0.5,0.2,0.9,0.6,1.2,1.1s0.5,0.9,0.5,1.5c0,0.6-0.1,1.2-0.5,1.5
		c-0.2,0.5-0.7,0.8-1.2,1.1s-1.2,0.4-1.9,0.4h-2.5l0.8-0.8v3.1C89.1,46.6,87.2,46.6,87.2,46.6z M89.1,43.7l-0.8-0.9h2.4
		c0.6,0,1.1-0.1,1.3-0.4c0.2-0.2,0.5-0.6,0.5-1.1s-0.1-0.8-0.5-1.1c-0.2-0.2-0.7-0.4-1.3-0.4h-2.4l0.8-0.9V43.7z M92.5,46.6l-2-2.9
		h2l2,2.9H92.5z"/>
	<path class="st0" d="M95.8,46.6v-8.3h1.9v8.3H95.8z"/>
	<path class="st0" d="M101.5,46.6v-6.7h-2.6v-1.5h7.2v1.5h-2.6v6.7H101.5z"/>
	<path class="st0" d="M110.5,46.8c-1.2,0-2-0.4-2.7-0.9c-0.7-0.6-0.9-1.5-0.9-2.7v-4.7h1.9V43c0,0.8,0.1,1.3,0.5,1.7
		c0.4,0.4,0.7,0.5,1.3,0.5s1.1-0.1,1.3-0.5c0.2-0.4,0.5-0.9,0.5-1.7v-4.6h1.9v4.7c0,1.2-0.4,2.1-0.9,2.7
		C112.8,46.4,111.7,46.8,110.5,46.8z"/>
	<path class="st0" d="M115,46.6l3.8-8.3h1.9l3.8,8.3h-2l-2.9-7.3h0.7l-2.9,7.3H115z M116.8,44.9l0.5-1.4h4.4l0.5,1.4H116.8z"/>
	<path class="st0" d="M125.2,46.6v-8.3h1.9v6.7h4.2v1.5H125.2z"/>
</g>
<g>
	<path class="st0" d="M70.7,17.2l-2.2,16.8h-6.6l-2.5-16.8h4.6c0.5,4.6,0.9,8.6,1.1,11.8c0.2-3.2,0.5-6.1,0.7-8.6l0.3-3.1H70.7z"/>
	<path class="st0" d="M75.8,17.2v16.8h-4.4V17.2H75.8z"/>
	<path class="st0" d="M77.5,17.2h3.3c2.1,0,3.5,0.1,4.3,0.3c0.7,0.2,1.3,0.5,1.7,1c0.4,0.4,0.6,0.9,0.7,1.5c0.1,0.5,0.1,1.6,0.1,3.2
		v5.9c0,1.5-0.1,2.5-0.2,3c-0.1,0.5-0.4,0.9-0.7,1.2c-0.4,0.3-0.8,0.5-1.3,0.6c-0.5,0.1-1.3,0.2-2.3,0.2h-5.5V17.2z M81.9,20.1v11.1
		c0.6,0,1-0.1,1.2-0.4c0.1-0.3,0.2-0.9,0.2-2.1v-6.5c0-0.8,0-1.3-0.1-1.5c0-0.2-0.2-0.4-0.3-0.5C82.7,20.2,82.4,20.1,81.9,20.1z"/>
	<path class="st0" d="M96.8,17.2l2.5,16.8h-4.5l-0.2-3h-1.6l-0.3,3h-4.5l2.2-16.8H96.8z M94.5,28.1c-0.2-1.9-0.4-4.3-0.7-7.1
		c-0.4,3.2-0.7,5.6-0.8,7.1H94.5z"/>
</g>
</svg>
