<?xml version="1.0" encoding="utf-8"?>
<!-- Generator: Adobe Illustrator 26.0.1, SVG Export Plug-In . SVG Version: 6.00 Build 0)  -->
<svg version="1.1" id="Capa_1" xmlns="http://www.w3.org/2000/svg" xmlns:xlink="http://www.w3.org/1999/xlink" x="0px" y="0px"
	 viewBox="0 0 91.1 113.8" style="enable-background:new 0 0 91.1 113.8;" xml:space="preserve">
<style type="text/css">
	.st0{fill:#FFFFFF;}
</style>
<g>
	<path class="st0" d="M11.4,108.4H16v1.5H9.5v-8.3h6.2v1.5h-4.4C11.4,103.2,11.4,108.4,11.4,108.4z M11.3,104.9h4v1.4h-4V104.9z"/>
	<path class="st0" d="M20.1,110c-0.7,0-1.3-0.1-1.9-0.2s-1.1-0.4-1.4-0.7l0.6-1.4c0.4,0.2,0.7,0.5,1.3,0.6c0.5,0.1,0.9,0.2,1.4,0.2
		c0.4,0,0.7,0,0.9-0.1c0.2-0.1,0.4-0.1,0.5-0.4c0.1-0.1,0.1-0.2,0.1-0.5c0-0.2-0.1-0.4-0.2-0.5s-0.4-0.2-0.7-0.4
		c-0.2-0.1-0.6-0.1-0.9-0.2c-0.4-0.1-0.7-0.1-1.1-0.2c-0.4-0.1-0.6-0.2-0.9-0.5c-0.2-0.1-0.5-0.4-0.7-0.7c-0.1-0.2-0.2-0.6-0.2-1.1
		s0.1-0.9,0.4-1.3c0.2-0.4,0.6-0.7,1.2-0.9c0.5-0.2,1.2-0.4,1.9-0.4c0.5,0,1.1,0.1,1.5,0.2s0.9,0.4,1.3,0.6l-0.6,1.4
		c-0.4-0.2-0.7-0.4-1.2-0.5c-0.4-0.1-0.7-0.1-1.1-0.1s-0.7,0-0.9,0.1c-0.2,0.1-0.4,0.2-0.5,0.4c-0.1,0.1-0.1,0.2-0.1,0.5
		c0,0.2,0.1,0.4,0.2,0.5c0.1,0.1,0.4,0.2,0.7,0.4c0.2,0.1,0.6,0.1,0.9,0.2c0.4,0.1,0.7,0.1,1.1,0.2c0.4,0.1,0.6,0.2,0.9,0.4
		c0.2,0.1,0.5,0.4,0.7,0.7c0.1,0.2,0.2,0.6,0.2,1.1s-0.1,0.8-0.4,1.3c-0.2,0.4-0.6,0.7-1.2,0.9C21.6,109.9,20.8,110,20.1,110z"/>
	<path class="st0" d="M25,109.9v-8.3h3.7c0.7,0,1.4,0.1,1.9,0.4c0.5,0.2,0.9,0.6,1.2,1.1s0.5,0.9,0.5,1.5c0,0.6-0.1,1.2-0.5,1.5
		c-0.2,0.5-0.7,0.8-1.2,1.1s-1.2,0.4-1.9,0.4H26l0.8-0.8v3.1C26.9,109.9,25,109.9,25,109.9z M26.9,106.9L26,106h2.4
		c0.6,0,1.1-0.1,1.3-0.4c0.2-0.2,0.5-0.6,0.5-1.1s-0.1-0.8-0.5-1.1c-0.2-0.2-0.7-0.4-1.3-0.4H26l0.8-0.9
		C26.9,102.1,26.9,106.9,26.9,106.9z"/>
	<path class="st0" d="M33.5,109.9v-8.3h1.9v8.3H33.5z"/>
	<path class="st0" d="M37.5,109.9v-8.3h3.7c0.7,0,1.4,0.1,1.9,0.4c0.5,0.2,0.9,0.6,1.2,1.1s0.5,0.9,0.5,1.5c0,0.6-0.1,1.2-0.5,1.5
		c-0.2,0.5-0.7,0.8-1.2,1.1s-1.2,0.4-1.9,0.4h-2.5l0.8-0.8v3.1C39.4,109.9,37.5,109.9,37.5,109.9z M39.4,106.9l-0.8-0.9h2.4
		c0.6,0,1.1-0.1,1.3-0.4c0.2-0.2,0.5-0.6,0.5-1.1s-0.1-0.8-0.5-1.1c-0.2-0.2-0.7-0.4-1.3-0.4h-2.4l0.8-0.9V106.9z M42.8,109.9
		l-2-2.9h2l2,2.9H42.8z"/>
	<path class="st0" d="M46.1,109.9v-8.3H48v8.3H46.1z"/>
	<path class="st0" d="M51.7,109.9v-6.7h-2.6v-1.5h7.2v1.5h-2.6v6.7H51.7z"/>
	<path class="st0" d="M60.8,110c-1.2,0-2-0.4-2.7-0.9c-0.7-0.6-0.9-1.5-0.9-2.7v-4.7h1.9v4.6c0,0.8,0.1,1.3,0.5,1.7
		c0.4,0.4,0.7,0.5,1.3,0.5c0.6,0,1.1-0.1,1.3-0.5c0.2-0.4,0.5-0.9,0.5-1.7v-4.6h1.9v4.7c0,1.2-0.4,2.1-0.9,2.7
		C63.1,109.6,62,110,60.8,110z"/>
	<path class="st0" d="M65.3,109.9l3.8-8.3H71l3.8,8.3h-2l-2.9-7.3h0.7l-2.9,7.3H65.3z M67.1,108.1l0.5-1.4h4.4l0.5,1.4H67.1z"/>
	<path class="st0" d="M75.4,109.9v-8.3h1.9v6.7h4.2v1.5H75.4z"/>
</g>
<g>
	<path class="st0" d="M66.2,18.9c0.4,0,0.8,0.4,0.8,0.8c0,0.7,0,1.4,0,2.1c0,2.7,0,5.4,0,8.1c0,1.8,0,1.8-1.8,1.8c-4,0-7.8,0-11.8,0
		c-1.2,0-1.6,0.4-1.6,1.6c0,10.6,0,21.3,0,31.9c0,0.4,0,0.8-0.2,0.9c-1.1,1-2.2,1.8-3.3,2.7c-0.5,0.4-1.2,0.1-1.2-0.6
		c0-0.9,0-1.7,0-2.5c0-12.3,0-24.6,0-36.9c0-1.4,0.3-1.9,1.8-1.8c4.1,0.1,8.2,0.1,12.4,0c0.4,0,0.8-0.4,0.8-0.8v-1.8
		c0-0.4-0.4-0.8-0.8-0.8H48.1c-0.4,0-0.8-0.4-0.8-0.8V9.5c0-0.4-0.4-0.8-0.8-0.8h-1.7c-0.4,0-0.8,0.4-0.8,0.8c0,2.4,0,4.7,0,7
		c0,1.8-0.1,3.8,0,5.6c0,1.1-0.4,1.5-1.5,1.5c-4-0.1-8,0-11.9,0c-1.2,0-1.8,0.2-1.8,1.6s0.5,1.8,1.8,1.8c3.8-0.1,7.6,0,11.3,0
		c1.9,0,1.9,0,1.9,2c0,8.2,0,16.3,0,24.4c0,4.9,0,9.8,0,14.8l0,0c0,0.6-0.8,1.1-1.2,0.6c-1.1-1-2.2-1.8-3.2-2.7
		c-0.3-0.3-0.3-1-0.3-1.5c0-10.4,0-20.7,0-31c0-0.4,0-0.7,0-1.1c0-0.4-0.4-0.8-0.8-0.8H24.9c-0.4,0-0.7-0.3-0.8-0.7
		c0-0.2-0.1-0.4-0.1-0.6c0-3.4,0-6.8,0-10.2c0-1.1,0.3-1.4,1.4-1.4c4,0.1,8.2,0,12.2,0c0.3,0,0.5,0,0.8,0c0.4,0,0.7-0.4,0.7-0.8
		c0-2.6,0-5.2,0-7.8c0-1.8,0-3.4,0-5.2c0-0.9,0.3-1.2,1.1-1.2c3.4,0,6.9,0.1,10.4,0c1.1,0,1.1,0.5,1.1,1.3c0,4,0,7.8,0,11.8
		c0,1.8,0,1.8,1.9,1.8C57.9,18.9,61.9,18.9,66.2,18.9z"/>
	<path class="st0" d="M76.3,15.1c0-0.1,0-0.1,0.1-0.2c0.2-0.1,0.2-0.2,0.3-0.2c4.4-0.4,4.4-0.4,4.4,4c0,13.9,0,27.7,0,41.6
		c0,1.2-0.4,1.8-1.5,2.2c-8.5,3.5-17,7.2-25.7,10.7c-0.8,0.4-1.6,0.6-2.5,0.8c-0.2,0.1-0.4-0.3-0.2-0.4c1-0.6,2-1.3,3-1.9
		c7-4,14.1-8.1,21.1-12c0.8-0.4,0.9-1.1,0.9-1.8c0-13.9,0-27.7,0-41.6C76.3,15.9,76.3,15.4,76.3,15.1z"/>
	<path class="st0" d="M14.8,15.1c0-0.1,0-0.1-0.1-0.2c-0.2-0.1-0.2-0.2-0.3-0.2c-4.4-0.4-4.4-0.4-4.4,4c0,13.9,0,27.7,0,41.6
		c0,1.2,0.4,1.8,1.5,2.2c8.6,3.5,17.1,7.2,25.7,10.7c0.8,0.4,1.6,0.6,2.5,0.8c0.2,0.1,0.4-0.3,0.2-0.4c-1-0.6-2-1.3-3-1.9
		c-7-4-14.1-8.1-21.1-12c-0.8-0.4-0.9-1.1-0.9-1.8c0-13.9,0-27.7,0-41.6C14.8,15.9,14.8,15.4,14.8,15.1z"/>
	<g>
		<path class="st0" d="M69.5,11.1c0-0.2,0.2-0.4,0.4-0.4c1.2,0,2.5-0.1,3.6,0.1c0.3,0,0.6,0.7,0.6,1.1c0,14.1-0.2,28,0.1,42.1
			c0,3-0.8,4.6-3.4,6c-6.8,3.6-13.4,7.6-20,11.4l0,0c-0.4,0.3-0.8-0.4-0.4-0.6c1.2-1.1,2.5-2.1,3.8-3.2c4.7-3.9,9.5-7.7,14.3-11.5
			c0.8-0.6,1.1-1.3,1.1-2.5c0-13.7,0-27.5,0-41.2C69.5,12.1,69.5,11.7,69.5,11.1z"/>
		<path class="st0" d="M21.6,11.1c0-0.2-0.2-0.4-0.4-0.4c-1.2,0-2.5-0.1-3.6,0.1c-0.3,0-0.7,0.7-0.7,1.1C17,26,17.1,40,16.9,54
			c0,3,0.8,4.6,3.4,6c6.8,3.6,13.4,7.6,20,11.5l0,0c0.4,0.3,0.8-0.4,0.4-0.6c-1.2-1.1-2.5-2.1-3.8-3.2c-4.7-3.9-9.5-7.7-14.3-11.5
			c-0.8-0.6-1.1-1.3-1.1-2.5c0-13.7,0-27.5,0-41.2C21.6,12.1,21.6,11.7,21.6,11.1z"/>
	</g>
</g>
<g>
	<path class="st0" d="M35.7,78.2l-2.5,19.1h-7.5l-2.9-19.1H28c0.6,5.3,1,9.7,1.3,13.3c0.3-3.7,0.5-6.9,0.8-9.8l0.3-3.6H35.7z"/>
	<path class="st0" d="M41.5,78.2v19.1h-5V78.2H41.5z"/>
	<path class="st0" d="M43.5,78.2h3.7c2.4,0,4,0.1,4.9,0.3c0.8,0.2,1.5,0.6,1.9,1.1c0.4,0.5,0.7,1.1,0.8,1.7c0.1,0.6,0.2,1.8,0.2,3.6
		v6.7c0,1.7-0.1,2.9-0.2,3.4c-0.2,0.6-0.4,1-0.8,1.4c-0.4,0.3-0.9,0.6-1.5,0.7c-0.6,0.1-1.5,0.2-2.7,0.2h-6.3V78.2z M48.5,81.5V94
		c0.7,0,1.2-0.1,1.3-0.4c0.2-0.3,0.2-1.1,0.2-2.3v-7.4c0-0.9,0-1.4-0.1-1.7c-0.1-0.2-0.2-0.4-0.4-0.5C49.4,81.5,49,81.5,48.5,81.5z"
		/>
	<path class="st0" d="M65.5,78.2l2.8,19.1h-5.1L63,93.9h-1.8l-0.3,3.4h-5.1l2.5-19.1H65.5z M62.8,90.5c-0.3-2.2-0.5-4.8-0.8-8
		c-0.5,3.7-0.8,6.3-1,8H62.8z"/>
</g>
</svg>
